HIERARCHY
ROOT Hips
{
 OFFSET 0.000000 0.000000 0.000000
 CHANNELS 6 Xposition Yposition Zposition Yrotation Xrotation Zrotation
 JOINT Chest
 {
  OFFSET 0.000000 9.585900 0.002600
  CHANNELS 3 Yrotation Xrotation Zrotation
  JOINT Chest2
  {
   OFFSET 0.000000 9.601200 -0.005300
   CHANNELS 3 Yrotation Xrotation Zrotation
   JOINT Chest3
   {
    OFFSET 0.000000 9.561800 0.000000
    CHANNELS 3 Yrotation Xrotation Zrotation
    JOINT Chest4
    {
     OFFSET 0.000000 9.552100 0.000000
     CHANNELS 3 Yrotation Xrotation Zrotation
     JOINT Neck
     {
      OFFSET 0.000000 14.453000 0.000000
      CHANNELS 3 Yrotation Xrotation Zrotation
      JOINT Head
      {
       OFFSET 0.000000 8.936500 -0.011300
       CHANNELS 3 Yrotation Xrotation Zrotation
       End Site
       {
        OFFSET 0.000000 17.073600 -0.006000
       }
      }
     }
     JOINT RightCollar
     {
      OFFSET -2.921100 9.558500 0.000000
      CHANNELS 3 Yrotation Xrotation Zrotation
      JOINT RightShoulder
      {
       OFFSET -13.519700 0.000000 0.000000
       CHANNELS 3 Yrotation Xrotation Zrotation
       JOINT RightElbow
       {
        OFFSET 0.000000 -29.696600 0.000000
        CHANNELS 3 Yrotation Xrotation Zrotation
        JOINT RightWrist
        {
         OFFSET 0.000000 -24.004700 0.000000
         CHANNELS 3 Yrotation Xrotation Zrotation
         End Site
         {
          OFFSET 0.000000 -17.728500 0.000000
         }
        }
       }
      }
     }
     JOINT LeftCollar
     {
      OFFSET 2.921100 9.558500 0.000000
      CHANNELS 3 Yrotation Xrotation Zrotation
      JOINT LeftShoulder
      {
       OFFSET 13.519700 0.000000 0.000000
       CHANNELS 3 Yrotation Xrotation Zrotation
       JOINT LeftElbow
       {
        OFFSET 0.000000 -29.696600 0.000000
        CHANNELS 3 Yrotation Xrotation Zrotation
        JOINT LeftWrist
        {
         OFFSET 0.000000 -24.004700 0.000000
         CHANNELS 3 Yrotation Xrotation Zrotation
         End Site
         {
          OFFSET 0.000000 -17.728500 0.000000
         }
        }
       }
      }
     }
    }
   }
  }
 }
 JOINT RightHip
 {
  OFFSET -7.771700 -0.012900 -0.001300
  CHANNELS 3 Yrotation Xrotation Zrotation
  JOINT RightKnee
  {
   OFFSET 0.000000 -40.869800 0.001200
   CHANNELS 3 Yrotation Xrotation Zrotation
   JOINT RightAnkle
   {
    OFFSET 0.000000 -39.717900 0.002100
    CHANNELS 3 Yrotation Xrotation Zrotation
    JOINT RightToe
    {
     OFFSET 0.000000 -4.965400 11.033500
     CHANNELS 3 Yrotation Xrotation Zrotation
     End Site
     {
      OFFSET 0.000000 -1.423100 5.872300
     }
    }
   }
  }
 }
 JOINT LeftHip
 {
  OFFSET 7.771700 -0.012900 -0.001300
  CHANNELS 3 Yrotation Xrotation Zrotation
  JOINT LeftKnee
  {
   OFFSET 0.000000 -40.869800 0.001200
   CHANNELS 3 Yrotation Xrotation Zrotation
   JOINT LeftAnkle
   {
    OFFSET 0.000000 -39.717900 0.002100
    CHANNELS 3 Yrotation Xrotation Zrotation
    JOINT LeftToe
    {
     OFFSET 0.000000 -4.965400 11.033500
     CHANNELS 3 Yrotation Xrotation Zrotation
     End Site
     {
      OFFSET 0.000000 -1.423100 5.872300
     }
    }
   }
  }
 }
}
MOTION
Frames: 7
Frame Time: 0.008333
0.000000 85.388000 0.000000 0.000000 -5.767877 0.000000 0.000000 11.653817 0.000000 0.000000 -5.885947 0.000000 0.000000 -0.000000 0.000000 0.000000 -0.000000 0.000000 0.000000 12.528835 0.000000 0.000000 0.711642 0.000000 0.000000 -0.000000 0.000000 0.000000 0.000000 -90.000000 0.000000 -2.309062 0.000000 0.000000 2.309062 0.000000 0.000000 -0.000000 0.000000 0.000000 -0.000000 90.000000 0.000000 -2.309062 0.000000 0.000000 2.309062 0.000000 0.000000 8.520406 0.000000 0.000000 1.905762 0.000000 -0.000000 -4.658285 0.000000 0.000000 -0.000000 0.000000 0.000000 8.520406 0.000000 0.000000 1.905762 0.000000 -0.000000 -4.658285 0.000000 0.000000 -0.000000 0.000000
-56.963050 61.902801 15.086694 175.116515 -50.627671 -1.068219 4.624356 26.432530 1.167991 0.712004 4.487703 0.068961 1.126235 7.101596 0.120985 3.629140 21.605036 0.892317 1.843193 16.217474 2.457646 2.571614 -5.676376 3.933376 6.253544 8.565068 6.669443 -10.621220 -17.697964 -14.207339 -94.999574 -57.244411 125.691867 7.486798 0.821228 -2.893950 -10.826174 5.605497 -1.808021 2.612633 -14.688236 16.917241 122.746907 -71.983975 -143.822223 8.896134 -2.397467 -9.773057 -0.023220 -16.735178 -2.761795 -3.932223 63.832054 -6.922666 1.031637 -6.600377 7.467398 0.019077 -0.126915 0.022449 -3.159234 -14.391893 6.620384 24.784463 75.738137 26.172111 0.617678 -9.935972 -4.906802 0.051544 0.174812 0.024186
-56.962158 61.908806 15.087478 175.122901 -50.694838 -1.079325 4.617489 26.466799 1.162008 0.709705 4.460574 0.047349 1.139445 7.153940 0.153207 3.622792 21.601665 0.882512 1.747585 16.349164 2.512971 2.390323 -5.417713 4.102321 6.316349 8.522491 6.677555 -10.395182 -17.876042 -14.280530 -92.345460 -56.540992 123.219740 6.748677 0.361912 -2.973399 -10.844326 5.517915 -1.856745 2.379446 -14.701271 17.099966 121.779276 -72.014942 -143.119296 8.816826 -2.295781 -9.924912 -0.027272 -16.659598 -2.752777 -3.922897 63.818247 -6.913459 1.024897 -6.590384 7.464949 0.022854 -0.133448 0.021443 -3.162843 -14.321352 6.617310 24.771703 75.728382 26.167277 0.623553 -9.916921 -4.913706 0.051996 0.161616 0.023789
-56.963214 61.909118 15.093624 175.128323 -50.722474 -1.080810 4.611404 26.461345 1.143933 0.711945 4.462853 0.041744 1.138427 7.160296 0.153796 3.621551 21.608420 0.872129 1.651212 16.498651 2.592542 2.189172 -5.138159 4.295720 6.383476 8.484879 6.702959 -10.174976 -18.076599 -14.345059 -89.769881 -55.772996 120.758237 6.054286 -0.038100 -3.056420 -10.864443 5.436175 -1.899068 2.142129 -14.710331 17.293445 120.774520 -72.028767 -142.387750 8.746765 -2.201579 -10.027343 -0.029804 -16.629269 -2.755248 -3.917277 63.808561 -6.907940 1.023631 -6.591008 7.463556 0.023463 -0.128339 0.020044 -3.163359 -14.291826 6.608508 24.782140 75.711616 26.182261 0.619778 -9.914788 -4.916454 0.052420 0.168535 0.023240
-56.964096 61.909023 15.100751 175.136343 -50.751094 -1.085784 4.607431 26.455624 1.125035 0.712355 4.462654 0.036509 1.135758 7.141431 0.120501 3.637620 21.641515 0.897450 1.543531 16.656950 2.683178 1.973040 -4.838005 4.514316 6.426341 8.471977 6.737426 -9.949724 -18.323282 -14.404313 -87.316929 -54.986589 118.351991 5.365290 -0.394700 -3.179608 -10.888543 5.348280 -1.944580 1.892681 -14.710534 17.494260 119.789882 -72.035042 -141.669209 8.690753 -2.120787 -10.101349 -0.034505 -16.598500 -2.758187 -3.916643 63.798331 -6.904167 1.027951 -6.590483 7.461669 0.021947 -0.123052 0.017779 -3.164188 -14.263927 6.601345 24.779436 75.702075 26.184649 0.623468 -9.915834 -4.918270 0.049695 0.175841 0.022907
-56.965901 61.911226 15.106269 175.143750 -50.801745 -1.083835 4.602260 26.469744 1.100233 0.711497 4.458465 0.027700 1.138779 7.166643 0.134323 3.628687 21.639406 0.866086 1.427362 16.820023 2.787127 1.743895 -4.517803 4.759677 6.507279 8.431578 6.769977 -9.796368 -18.567677 -14.447167 -85.015891 -54.225969 116.031315 4.630858 -0.727703 -3.377920 -10.911447 5.254101 -1.990233 1.631620 -14.701543 17.696922 118.853371 -72.040191 -140.987509 8.643751 -2.060733 -10.159759 -0.036160 -16.545827 -2.766467 -3.913205 63.790415 -6.901117 1.027758 -6.585193 7.461884 0.021708 -0.123073 0.017287 -3.157237 -14.212816 6.582349 24.778942 75.689138 26.194052 0.627761 -9.911090 -4.917304 0.043822 0.174053 0.019773
-56.962940 61.919522 15.107523 175.189185 -50.902646 -1.137396 4.587694 26.484236 1.081315 0.713447 4.520640 0.060526 1.138911 7.171499 0.131768 3.576399 21.598780 0.749870 1.362316 17.023475 2.973462 1.501641 -4.180315 5.032221 6.642577 8.430928 6.877207 -9.673297 -18.837615 -14.485281 -82.886414 -53.499873 113.814959 3.822560 -1.032927 -3.669623 -10.885943 5.207391 -1.983145 1.354387 -14.684928 17.899809 117.972001 -72.042476 -140.349122 8.596819 -2.023031 -10.205008 -0.069074 -16.431915 -2.747298 -3.907262 63.773194 -6.893110 1.029464 -6.597915 7.465660 0.015783 -0.108762 0.009632 -3.184103 -14.106946 6.593917 24.768901 75.681379 26.186292 0.638324 -9.875108 -4.912095 0.029311 0.142222 0.012918
